<svg version="1.1" viewBox="0.0 0.0 588.9658792650919 686.6141732283464" fill="none" stroke="none" stroke-linecap="square" stroke-miterlimit="10" xmlns:xlink="http://www.w3.org/1999/xlink" xmlns="http://www.w3.org/2000/svg"><clipPath id="p.0"><path d="m0 0l588.9659 0l0 686.6142l-588.9659 0l0 -686.6142z" clip-rule="nonzero"/></clipPath><g clip-path="url(#p.0)"><path fill="#000000" fill-opacity="0.0" d="m0 0l588.9659 0l0 686.6142l-588.9659 0z" fill-rule="evenodd"/><path fill="#ffffff" d="m262.08136 54.273235l0 0c0 -7.4915047 6.073059 -13.564575 13.564575 -13.564575l54.256683 0l0 0c3.5975342 0 7.04776 1.4291229 9.591614 3.9729729c2.5438538 2.5438538 3.9729614 5.9940567 3.9729614 9.591602l0 578.0677c0 7.491516 -6.073059 13.564575 -13.564575 13.564575l-54.256683 0c-7.491516 0 -13.564575 -6.073059 -13.564575 -13.564575z" fill-rule="evenodd"/><path stroke="#000000" stroke-width="1.0" stroke-linejoin="round" stroke-linecap="butt" d="m262.08136 54.273235l0 0c0 -7.4915047 6.073059 -13.564575 13.564575 -13.564575l54.256683 0l0 0c3.5975342 0 7.04776 1.4291229 9.591614 3.9729729c2.5438538 2.5438538 3.9729614 5.9940567 3.9729614 9.591602l0 578.0677c0 7.491516 -6.073059 13.564575 -13.564575 13.564575l-54.256683 0c-7.491516 0 -13.564575 -6.073059 -13.564575 -13.564575z" fill-rule="evenodd"/><path fill="#ffffff" d="m155.27821 143.00294l0 0c0 -9.05127 7.337509 -16.388771 16.388779 -16.388771l262.21457 0c4.346588 0 8.515137 1.726677 11.588623 4.8001633c3.0734863 3.0734863 4.800171 7.242035 4.800171 11.588608l0 65.55316c0 9.05127 -7.3375244 16.388779 -16.388794 16.388779l-262.21457 0c-9.05127 0 -16.388779 -7.337509 -16.388779 -16.388779z" fill-rule="evenodd"/><path stroke="#000000" stroke-width="1.0" stroke-linejoin="round" stroke-linecap="butt" d="m155.27821 143.00294l0 0c0 -9.05127 7.337509 -16.388771 16.388779 -16.388771l262.21457 0c4.346588 0 8.515137 1.726677 11.588623 4.8001633c3.0734863 3.0734863 4.800171 7.242035 4.800171 11.588608l0 65.55316c0 9.05127 -7.3375244 16.388779 -16.388794 16.388779l-262.21457 0c-9.05127 0 -16.388779 -7.337509 -16.388779 -16.388779z" fill-rule="evenodd"/><path fill="#ffffff" d="m92.15223 310.53052l0 0c0 -9.05127 7.337509 -16.388794 16.388779 -16.388794l371.88385 0c4.346588 0 8.515137 1.7266846 11.588623 4.800171c3.0734863 3.0734863 4.800171 7.242035 4.800171 11.588623l0 65.55313c0 9.0513 -7.3375244 16.388794 -16.388794 16.388794l-371.88385 0c-9.05127 0 -16.388779 -7.337494 -16.388779 -16.388794z" fill-rule="evenodd"/><path stroke="#000000" stroke-width="1.0" stroke-linejoin="round" stroke-linecap="butt" d="m92.15223 310.53052l0 0c0 -9.05127 7.337509 -16.388794 16.388779 -16.388794l371.88385 0c4.346588 0 8.515137 1.7266846 11.588623 4.800171c3.0734863 3.0734863 4.800171 7.242035 4.800171 11.588623l0 65.55313c0 9.0513 -7.3375244 16.388794 -16.388794 16.388794l-371.88385 0c-9.05127 0 -16.388779 -7.337494 -16.388779 -16.388794z" fill-rule="evenodd"/><path fill="#ffffff" d="m35.632545 488.0922l0 0c0 -9.05127 7.3375053 -16.388794 16.388779 -16.388794l484.92325 0c4.3465576 0 8.515076 1.7266846 11.588562 4.800171c3.0735474 3.0734863 4.800171 7.242035 4.800171 11.588623l0 65.55313c0 9.05127 -7.3374634 16.388794 -16.388733 16.388794l-484.92325 0l0 0c-9.051273 0 -16.388779 -7.3375244 -16.388779 -16.388794z" fill-rule="evenodd"/><path stroke="#000000" stroke-width="1.0" stroke-linejoin="round" stroke-linecap="butt" d="m35.632545 488.0922l0 0c0 -9.05127 7.3375053 -16.388794 16.388779 -16.388794l484.92325 0c4.3465576 0 8.515076 1.7266846 11.588562 4.800171c3.0735474 3.0734863 4.800171 7.242035 4.800171 11.588623l0 65.55313c0 9.05127 -7.3374634 16.388794 -16.388733 16.388794l-484.92325 0l0 0c-9.051273 0 -16.388779 -7.3375244 -16.388779 -16.388794z" fill-rule="evenodd"/></g></svg>